
        <svg xmlns="http://www.w3.org/2000/svg" xmlns:xlink="http://www.w3.org/1999/xlink" version="1.1" width="3162.283156127588" 
        height="883.3863109005649" viewBox="0 0 3162.283156127588 883.3863109005649">
			
			<g transform="scale(8.114157806379406) translate(10, 10)">
				<defs id="SvgjsDefs5305"></defs><g id="SvgjsG5306" featureKey="symbolFeature-0" transform="matrix(0.9874269058738006,0,0,0.9874269058738006,-19.232704229712958,-4.936567164952128)" fill="#00a6ed"><path xmlns="http://www.w3.org/2000/svg" d="M46.522,57.633c8.39,0,17.174-2.042,20.968-5.901v37.571c-21.72,12.82-41.936,0-41.936,0V51.731  C29.348,55.591,38.133,57.633,46.522,57.633z M60.862,40.497c-0.617,0.548-2.509,3.079-2.509,3.079s2.712,1.231,2.743,3.105  c0.048,2.944-6.526,5.331-14.574,5.331s-14.574-2.386-14.574-5.331c-0.076-2.822,5.817-4.255,5.817-4.255s-2.101-1.703-2.819-2.651  c-6.001,1.456-9.392,3.921-9.392,6.906c0,4.574,9.389,8.289,20.968,8.289c11.581,0,20.968-3.715,20.968-8.289  C67.49,44.185,65.287,42.016,60.862,40.497z M72.583,12.743c-1.015,1.231-8.395,8.211-12.249,11.833l2.409,1.953  c1.866,1.517,2.432,4.018,1.562,6.121L48.539,19.86c1.902-1.272,4.481-1.216,6.348,0.293l2.773,2.251  c2.519-4.415,7.318-12.706,8.858-14.58c2.124-2.584,5.198-3.576,6.875-2.213C75.066,6.969,74.704,10.159,72.583,12.743z   M72.295,6.943c-0.711-0.578-2.495,0.431-3.989,2.243c-1.488,1.819-2.126,3.755-1.415,4.331c0.712,0.576,2.496-0.426,3.99-2.243  C72.372,9.46,73.007,7.521,72.295,6.943z M36.507,38.197c0.051,0.396,0.227,0.76,0.545,1.018c0.352,0.29,0.806,0.39,1.252,0.321  c0.018,0.443,0.209,0.864,0.563,1.152c0.326,0.27,0.742,0.367,1.157,0.326c0.041,0.407,0.219,0.795,0.548,1.058  c0.331,0.272,0.75,0.37,1.165,0.324c0.041,0.415,0.222,0.8,0.55,1.068c0.347,0.282,0.785,0.38,1.219,0.323  c0.03,0.434,0.214,0.841,0.558,1.121c0.329,0.269,0.742,0.362,1.16,0.322c0.038,0.412,0.219,0.795,0.548,1.06  c0.324,0.266,0.727,0.36,1.132,0.324c0.043,0.405,0.225,0.78,0.546,1.037c0.331,0.271,0.75,0.373,1.165,0.326  c0.041,0.414,0.222,0.801,0.551,1.068c0.711,0.579,1.815,0.4,2.468-0.395c0.168-0.204,0.29-0.431,0.367-0.663l3.255-3.962  L39.127,30.944l-3.256,3.959c-0.214,0.122-0.416,0.283-0.583,0.487c-0.653,0.796-0.607,1.904,0.104,2.483  C35.711,38.13,36.109,38.225,36.507,38.197z M63.503,33.993c0.102-0.127,0.198-0.26,0.29-0.393l-16.09-13.052  c-0.112,0.117-0.225,0.234-0.329,0.359l-7.008,8.525l16.126,13.09L63.503,33.993z"></path></g><g id="SvgjsG5307" featureKey="nameFeature-0" transform="matrix(1.546872358105267,0,0,1.546872358105267,66.79039218483905,7.733508257898668)" fill="#00a6ed"><path d="M16.68 8.359000000000002 l-0.019531 0.078125 c2.1875 0 4.2383 0.41016 6.1719 1.25 s3.6328 1.9727 5.0977 3.3984 l-4.4922 4.4922 c-1.8945 -1.875 -4.1406 -2.8125 -6.7383 -2.8125 c-2.6367 0 -4.8828 0.9375 -6.7383 2.8125 s-2.793 4.1211 -2.793 6.7383 c0 2.6367 0.9375 4.8828 2.793 6.7383 s4.1016 2.793 6.7383 2.793 s4.8828 -0.9375 6.7578 -2.8125 l4.4922 4.4922 c-1.4648 1.4453 -3.1641 2.5781 -5.0977 3.418 s-3.9844 1.25 -6.1719 1.25 c-4.375 0 -8.125 -1.5625 -11.23 -4.668 s-4.668 -6.8555 -4.668 -11.23 s1.5625 -8.125 4.668 -11.25 s6.8555 -4.6875 11.23 -4.6875 z M41.217171875 29.59 l5.5664 0 l-2.7734 -6.543 z M38.638671875 35.1562 l-0.039063 -0.019531 c-0.70313 1.6016 -1.4258 3.1836 -2.1484 4.7852 l-6.7773 0 l14.277 -31.992 l14.316 31.992 l-6.7969 0 c-0.70313 -1.582 -1.4063 -3.1836 -2.1094 -4.7656 l-10.723 0 z M61.515625 40 l-0.019531 -31.523 l10.234 0 c3.0273 0 6.0156 1.0547 8.1836 3.2227 s3.0469 4.1992 3.0469 7.2266 l0 0.97656 c0 2.3438 -0.66406 4.0625 -1.9922 5.9375 s-2.4414 2.4219 -4.5117 3.2031 l7.1094 10.957 l-7.6953 0 l-8.0469 -12.305 l0 12.305 l-6.3086 0 z M67.804725 23.633 l4.5117 0.019531 c1.3086 0 1.9727 -0.33203 2.8906 -1.25 s1.25 -1.9727 1.25 -3.2813 c0 -1.2891 -0.33203 -2.1484 -1.25 -3.0859 s-2.5586 -1.2695 -3.8672 -1.2695 l-3.5352 0 l0 8.8672 z M102.459296875 8.359000000000002 c4.375 0 8.125 1.5625 11.25 4.6875 s4.6875 6.875 4.6875 11.25 s-1.5625 8.125 -4.6875 11.23 s-6.875 4.668 -11.25 4.668 s-8.125 -1.5625 -11.23 -4.668 s-4.668 -6.8555 -4.668 -11.23 s1.5625 -8.125 4.668 -11.25 s6.8555 -4.6875 11.23 -4.6875 z M102.459296875 14.707 c-2.6367 0 -4.8828 0.9375 -6.7383 2.8125 s-2.793 4.1211 -2.793 6.7383 c0 2.6367 0.9375 4.8828 2.793 6.7383 s4.1016 2.793 6.7383 2.793 c2.6172 0 4.8633 -0.9375 6.7383 -2.793 s2.8125 -4.1016 2.8125 -6.7383 c0 -2.6172 -0.9375 -4.8633 -2.8125 -6.7383 s-4.1211 -2.8125 -6.7383 -2.8125 z M129.027375 8.515999999999998 l6.3086 0 l7.8711 0 l0 6.2891 l-7.8711 0 l0 25.195 l-6.3086 0 l0 -25.195 l-7.8711 0 l0 -6.2891 l7.8711 0 z M146.787109375 8.515999999999998 l18.887 0 l0 6.2891 l-12.578 0 l0 6.3086 l9.4336 0 l0 6.2891 l-9.4336 0 l0 6.2891 l12.578 0 l0 6.3086 l-12.578 0 l-6.3086 0 l0 -31.484 z M184.56671875 8.359000000000002 l-0.019531 0.078125 c2.1875 0 4.2383 0.41016 6.1719 1.25 s3.6328 1.9727 5.0977 3.3984 l-4.4922 4.4922 c-1.8945 -1.875 -4.1406 -2.8125 -6.7383 -2.8125 c-2.6367 0 -4.8828 0.9375 -6.7383 2.8125 s-2.793 4.1211 -2.793 6.7383 c0 2.6367 0.9375 4.8828 2.793 6.7383 s4.1016 2.793 6.7383 2.793 s4.8828 -0.9375 6.7578 -2.8125 l4.4922 4.4922 c-1.4648 1.4453 -3.1641 2.5781 -5.0977 3.418 s-3.9844 1.25 -6.1719 1.25 c-4.375 0 -8.125 -1.5625 -11.23 -4.668 s-4.668 -6.8555 -4.668 -11.23 s1.5625 -8.125 4.668 -11.25 s6.8555 -4.6875 11.23 -4.6875 z"></path></g>
			</g>
		</svg>
	