
        <svg xmlns="http://www.w3.org/2000/svg" xmlns:xlink="http://www.w3.org/1999/xlink" version="1.1" width="3143.5406698564593" 
        height="1231.5885203315306" viewBox="0 0 3143.5406698564593 1231.5885203315306">
			<rect fill="#00a6ed" width="3143.5406698564593" height="1231.5885203315306"/>
			<g transform="scale(7.177033492822966) translate(10, 10)">
				<defs id="SvgjsDefs2612"></defs><g id="SvgjsG2613" featureKey="symbolFeature-0" transform="matrix(1.6844341335494246,0,0,1.6844341335494246,-43.04402486245152,-8.42120281080069)" fill="#ffffff"><path xmlns="http://www.w3.org/2000/svg" d="M46.522,57.633c8.39,0,17.174-2.042,20.968-5.901v37.571c-21.72,12.82-41.936,0-41.936,0V51.731  C29.348,55.591,38.133,57.633,46.522,57.633z M60.862,40.497c-0.617,0.548-2.509,3.079-2.509,3.079s2.712,1.231,2.743,3.105  c0.048,2.944-6.526,5.331-14.574,5.331s-14.574-2.386-14.574-5.331c-0.076-2.822,5.817-4.255,5.817-4.255s-2.101-1.703-2.819-2.651  c-6.001,1.456-9.392,3.921-9.392,6.906c0,4.574,9.389,8.289,20.968,8.289c11.581,0,20.968-3.715,20.968-8.289  C67.49,44.185,65.287,42.016,60.862,40.497z M72.583,12.743c-1.015,1.231-8.395,8.211-12.249,11.833l2.409,1.953  c1.866,1.517,2.432,4.018,1.562,6.121L48.539,19.86c1.902-1.272,4.481-1.216,6.348,0.293l2.773,2.251  c2.519-4.415,7.318-12.706,8.858-14.58c2.124-2.584,5.198-3.576,6.875-2.213C75.066,6.969,74.704,10.159,72.583,12.743z   M72.295,6.943c-0.711-0.578-2.495,0.431-3.989,2.243c-1.488,1.819-2.126,3.755-1.415,4.331c0.712,0.576,2.496-0.426,3.99-2.243  C72.372,9.46,73.007,7.521,72.295,6.943z M36.507,38.197c0.051,0.396,0.227,0.76,0.545,1.018c0.352,0.29,0.806,0.39,1.252,0.321  c0.018,0.443,0.209,0.864,0.563,1.152c0.326,0.27,0.742,0.367,1.157,0.326c0.041,0.407,0.219,0.795,0.548,1.058  c0.331,0.272,0.75,0.37,1.165,0.324c0.041,0.415,0.222,0.8,0.55,1.068c0.347,0.282,0.785,0.38,1.219,0.323  c0.03,0.434,0.214,0.841,0.558,1.121c0.329,0.269,0.742,0.362,1.16,0.322c0.038,0.412,0.219,0.795,0.548,1.06  c0.324,0.266,0.727,0.36,1.132,0.324c0.043,0.405,0.225,0.78,0.546,1.037c0.331,0.271,0.75,0.373,1.165,0.326  c0.041,0.414,0.222,0.801,0.551,1.068c0.711,0.579,1.815,0.4,2.468-0.395c0.168-0.204,0.29-0.431,0.367-0.663l3.255-3.962  L39.127,30.944l-3.256,3.959c-0.214,0.122-0.416,0.283-0.583,0.487c-0.653,0.796-0.607,1.904,0.104,2.483  C35.711,38.13,36.109,38.225,36.507,38.197z M63.503,33.993c0.102-0.127,0.198-0.26,0.29-0.393l-16.09-13.052  c-0.112,0.117-0.225,0.234-0.329,0.359l-7.008,8.525l16.126,13.09L63.503,33.993z"></path></g><g id="SvgjsG2614" featureKey="textGroupContainer" transform="matrix(1,0,0,1,417,5)" fill="#ffffff"><rect xmlns="http://www.w3.org/2000/svg" y="0" height="1" width="1" opacity="0"></rect><rect xmlns="http://www.w3.org/2000/svg" y="0" x="-315" width="3" height="142"></rect></g><g id="SvgjsG2615" featureKey="nameFeature-0" transform="matrix(1.4179715268611843,0,0,1.4179715268611843,118.17223532933525,25.57441826531763)" fill="#ffffff"><path d="M16.191 40.39063 c-8.6719 0 -14.902 -5.8398 -14.902 -14.746 c0 -8.9258 6.2305 -14.766 14.902 -14.766 c6.8555 0 12.207 3.5938 14.121 9.4336 l-6.9531 2.4414 c-0.95703 -3.2031 -3.7109 -5.1172 -7.168 -5.1172 c-4.3164 0 -7.5195 3.0859 -7.5195 8.0078 s3.2031 7.9883 7.5195 7.9883 c3.457 0 6.2109 -1.9141 7.168 -5.1172 l6.9531 2.4414 c-1.9141 5.8398 -7.2656 9.4336 -14.121 9.4336 z M53.05109375 40 l-1.8555 -5.3125 l-11.484 0 l-1.8359 5.3125 l-7.5586 0 l10.566 -28.711 l9.1602 0 l10.566 28.711 l-7.5586 0 z M41.84009375 28.555 l7.2266 0 l-3.6133 -10.391 z M86.7655 40 l-8.8281 0 l-7.4805 -12.305 l0 12.305 l-7.4414 0 l0 -28.711 l10.996 0 c6.875 0 9.6094 3.9453 9.6094 8.8672 c0 4.043 -2.3828 6.4063 -5.8203 7.1484 z M76.5315 20.234 c0 -1.7578 -0.99609 -2.8711 -3.75 -2.8711 l-2.3242 0 l0 5.7617 l2.3242 0 c2.7539 0 3.75 -1.1328 3.75 -2.8906 z M101.9644375 40.39063 c-8.6719 0 -14.902 -5.8789 -14.902 -14.746 c0 -8.9258 6.2305 -14.766 14.902 -14.766 c8.6914 0 14.922 5.8398 14.922 14.766 c0 8.8672 -6.2305 14.746 -14.922 14.746 z M101.9644375 33.6328 c4.3359 0 7.5781 -3.0664 7.5781 -7.9883 s-3.2422 -8.0078 -7.5781 -8.0078 c-4.3164 0 -7.5195 3.0859 -7.5195 8.0078 s3.2031 7.9883 7.5195 7.9883 z M138.10159375 11.289000000000001 l0 6.4648 l-6.4844 0 l0 22.246 l-7.3633 0 l0 -22.246 l-6.5039 0 l0 -6.4648 l20.352 0 z M158.32078125 17.754 l-10 0 l0 4.6875 l8.9063 0 l0 6.4063 l-8.9063 0 l0 4.6289 l10 0 l0 6.5234 l-17.441 0 l0 -28.711 l17.441 0 l0 6.4648 z M175.92146875 40.39063 c-8.6719 0 -14.902 -5.8398 -14.902 -14.746 c0 -8.9258 6.2305 -14.766 14.902 -14.766 c6.8555 0 12.207 3.5938 14.121 9.4336 l-6.9531 2.4414 c-0.95703 -3.2031 -3.7109 -5.1172 -7.168 -5.1172 c-4.3164 0 -7.5195 3.0859 -7.5195 8.0078 s3.2031 7.9883 7.5195 7.9883 c3.457 0 6.2109 -1.9141 7.168 -5.1172 l6.9531 2.4414 c-1.9141 5.8398 -7.2656 9.4336 -14.121 9.4336 z"></path></g><g id="SvgjsG2616" featureKey="sloganFeature-0" transform="matrix(0.4951899588975236,0,0,0.4951899588975236,119.52956954495048,100.1130428135324)" fill="#ffffff"><path d="M11.72 6 c0.18 0 0.3 0.12 0.3 0.3 l0 2.24 c0 0.18 -0.12 0.3 -0.3 0.3 l-3.62 0 l0 10.86 c0 0.18 -0.12 0.3 -0.3 0.3 l-2.63 0 c-0.18 0 -0.3 -0.12 -0.3 -0.3 l0 -10.86 l-3.62 0 c-0.18 0 -0.3 -0.12 -0.3 -0.3 l0 -2.24 c0 -0.18 0.12 -0.3 0.3 -0.3 l10.47 0 z M23.516 15.030000000000001 l2.44 4.62 c0.11 0.21 -0.01 0.35 -0.24 0.35 l-2.58 0 c-0.17 0 -0.27 -0.07 -0.35 -0.23 l-2.19 -4.32 l-0.24 0 l-2 0 l0 4.25 c0 0.18 -0.12 0.3 -0.3 0.3 l-2.63 0 c-0.18 0 -0.3 -0.12 -0.3 -0.3 l0 -13.4 c0 -0.18 0.12 -0.3 0.3 -0.3 l4.93 0 c4.41 0 5.73 1.57 5.73 4.72 c0 2.22 -0.65 3.65 -2.57 4.31 z M18.356 8.84 l0 3.77 l2.23 0 c1.59 0 2.41 -0.34 2.41 -1.89 c0 -1.53 -0.82 -1.88 -2.41 -1.88 l-2.23 0 z M41.252 19.66 c0.07 0.2 -0.02 0.34 -0.24 0.34 l-2.74 0 c-0.16 0 -0.28 -0.06 -0.34 -0.24 l-0.64 -1.94 l-5.01 0 l-0.64 1.94 c-0.05 0.18 -0.18 0.24 -0.34 0.24 l-2.74 0 c-0.22 0 -0.31 -0.14 -0.24 -0.34 l4.9 -13.42 c0.06 -0.16 0.18 -0.24 0.34 -0.24 l2.4 0 c0.16 0 0.33 0.08 0.39 0.24 z M33.192 15.09 l3.2 0 l-1.6 -4.84 z M55.507999999999996 6 c0.18 0 0.3 0.12 0.3 0.3 l0 13.4 c0 0.18 -0.12 0.3 -0.3 0.3 l-2.96 0 c-0.16 0 -0.28 -0.06 -0.36 -0.2 l-4.77 -8.57 l0 8.47 c0 0.18 -0.12 0.3 -0.3 0.3 l-2.63 0 c-0.18 0 -0.3 -0.12 -0.3 -0.3 l0 -13.4 c0 -0.18 0.12 -0.3 0.3 -0.3 l2.95 0 c0.16 0 0.28 0.06 0.36 0.2 l4.77 8.56 l0 -8.46 c0 -0.18 0.12 -0.3 0.3 -0.3 l2.64 0 z M64.154 11.53 c2.63 0.49 5.4 1.41 5.4 4.48 c0 2.99 -1.8 4.29 -5.33 4.29 c-3.29 0 -4.91 -1.12 -5.16 -3.92 c-0.02 -0.2 0.1 -0.33 0.28 -0.33 l2.41 0 c0.18 0 0.25 0.11 0.3 0.27 c0.26 0.72 0.9 1.07 2.17 1.07 c1.34 0 2.17 -0.38 2.17 -1.27 c0 -0.93 -0.3 -1.43 -2.24 -1.81 c-2.48 -0.49 -4.88 -1.52 -4.88 -4.34 c0 -2.58 1.57 -4.14 4.88 -4.14 c2.95 0 4.71 1.09 4.98 3.79 c0.02 0.2 -0.1 0.36 -0.28 0.36 l-2.23 0 c-0.18 0 -0.25 -0.14 -0.3 -0.3 c-0.19 -0.58 -0.82 -0.97 -2.12 -0.97 c-1.19 0 -1.79 0.52 -1.79 1.26 c0 0.6 -0.04 1.22 1.74 1.56 z M81.91 6 c0.18 0 0.3 0.12 0.3 0.3 l0 2.24 c0 0.18 -0.12 0.3 -0.3 0.3 l-5.87 0 l0 2.81 l5.41 0 c0.18 0 0.3 0.12 0.3 0.3 l0 2.25 c0 0.18 -0.12 0.3 -0.3 0.3 l-5.41 0 l0 5.2 c0 0.18 -0.12 0.3 -0.3 0.3 l-2.63 0 c-0.18 0 -0.3 -0.12 -0.3 -0.3 l0 -13.4 c0 -0.18 0.12 -0.3 0.3 -0.3 l8.8 0 z M92.426 20.26 c-3.96 0 -7.21 -3.2 -7.21 -7.2 c0 -4.02 3.25 -7.22 7.21 -7.22 c3.97 0 7.23 3.2 7.23 7.22 c0 4 -3.26 7.2 -7.23 7.2 z M92.426 17.13 c2.23 0 3.98 -1.79 3.98 -4.07 c0 -2.3 -1.75 -4.09 -3.98 -4.09 c-2.21 0 -3.96 1.79 -3.96 4.09 c0 2.28 1.75 4.07 3.96 4.07 z M111.502 15.030000000000001 l2.44 4.62 c0.11 0.21 -0.01 0.35 -0.24 0.35 l-2.58 0 c-0.17 0 -0.27 -0.07 -0.35 -0.23 l-2.19 -4.32 l-0.24 0 l-2 0 l0 4.25 c0 0.18 -0.12 0.3 -0.3 0.3 l-2.63 0 c-0.18 0 -0.3 -0.12 -0.3 -0.3 l0 -13.4 c0 -0.18 0.12 -0.3 0.3 -0.3 l4.93 0 c4.41 0 5.73 1.57 5.73 4.72 c0 2.22 -0.65 3.65 -2.57 4.31 z M106.34199999999998 8.84 l0 3.77 l2.23 0 c1.59 0 2.41 -0.34 2.41 -1.89 c0 -1.53 -0.82 -1.88 -2.41 -1.88 l-2.23 0 z M131.768 6 c0.18 0 0.3 0.12 0.3 0.3 l0 13.4 c0 0.18 -0.12 0.3 -0.3 0.3 l-2.63 0 c-0.18 0 -0.3 -0.12 -0.3 -0.3 l0 -6.64 l-2.64 6.69 c-0.06 0.16 -0.2 0.25 -0.36 0.25 l-2.36 0 c-0.16 0 -0.31 -0.09 -0.37 -0.25 l-2.65 -6.72 l0 6.67 c0 0.18 -0.12 0.3 -0.3 0.3 l-2.63 0 c-0.18 0 -0.3 -0.12 -0.3 -0.3 l0 -13.4 c0 -0.18 0.12 -0.3 0.3 -0.3 l2.95 0 c0.16 0 0.3 0.06 0.36 0.2 l3.82 10.06 l3.81 -10.06 c0.06 -0.14 0.2 -0.2 0.36 -0.2 l2.94 0 z M145.54399999999998 8.84 l-3.17 0 l0 8.32 l3.17 0 c0.18 0 0.3 0.12 0.3 0.3 l0 2.24 c0 0.18 -0.12 0.3 -0.3 0.3 l-9.57 0 c-0.18 0 -0.3 -0.12 -0.3 -0.3 l0 -2.24 c0 -0.18 0.12 -0.3 0.3 -0.3 l3.17 0 l0 -8.32 l-3.17 0 c-0.18 0 -0.3 -0.12 -0.3 -0.3 l0 -2.24 c0 -0.18 0.12 -0.3 0.3 -0.3 l9.57 0 c0.18 0 0.3 0.12 0.3 0.3 l0 2.24 c0 0.18 -0.12 0.3 -0.3 0.3 z M160.77 6 c0.18 0 0.3 0.12 0.3 0.3 l0 13.4 c0 0.18 -0.12 0.3 -0.3 0.3 l-2.96 0 c-0.16 0 -0.28 -0.06 -0.36 -0.2 l-4.77 -8.57 l0 8.47 c0 0.18 -0.12 0.3 -0.3 0.3 l-2.63 0 c-0.18 0 -0.3 -0.12 -0.3 -0.3 l0 -13.4 c0 -0.18 0.12 -0.3 0.3 -0.3 l2.95 0 c0.16 0 0.28 0.06 0.36 0.2 l4.77 8.56 l0 -8.46 c0 -0.18 0.12 -0.3 0.3 -0.3 l2.64 0 z M177.846 11.94 c0.18 0 0.3 0.12 0.3 0.3 l0 1.43 c0 3.58 -2.31 6.59 -6.29 6.59 c-4.01 0 -7.33 -3.22 -7.33 -7.23 c0 -4.02 3.25 -7.19 7.26 -7.19 c1.95 0 3.74 0.8 4.96 2.07 c0.14 0.15 0.11 0.28 -0.01 0.42 l-1.62 1.75 c-0.11 0.14 -0.28 0.14 -0.42 0.02 c-0.77 -0.66 -1.74 -1.09 -2.94 -1.09 c-2.18 0 -3.89 1.74 -3.89 4.02 s1.61 4.06 3.96 4.06 c2.05 0 3.07 -1.19 3.13 -2.47 l-3.04 0 c-0.18 0 -0.3 -0.12 -0.3 -0.3 l0 -2.08 c0 -0.18 0.12 -0.3 0.3 -0.3 l5.93 0 z M194.34799999999998 11.53 c2.63 0.49 5.4 1.41 5.4 4.48 c0 2.99 -1.8 4.29 -5.33 4.29 c-3.29 0 -4.91 -1.12 -5.16 -3.92 c-0.02 -0.2 0.1 -0.33 0.28 -0.33 l2.41 0 c0.18 0 0.25 0.11 0.3 0.27 c0.26 0.72 0.9 1.07 2.17 1.07 c1.34 0 2.17 -0.38 2.17 -1.27 c0 -0.93 -0.3 -1.43 -2.24 -1.81 c-2.48 -0.49 -4.88 -1.52 -4.88 -4.34 c0 -2.58 1.57 -4.14 4.88 -4.14 c2.95 0 4.71 1.09 4.98 3.79 c0.02 0.2 -0.1 0.36 -0.28 0.36 l-2.23 0 c-0.18 0 -0.25 -0.14 -0.3 -0.3 c-0.19 -0.58 -0.82 -0.97 -2.12 -0.97 c-1.19 0 -1.79 0.52 -1.79 1.26 c0 0.6 -0.04 1.22 1.74 1.56 z M208.23399999999998 6 c4.41 0 5.73 1.57 5.73 4.72 c0 3.16 -1.32 4.73 -5.73 4.73 l-2 0 l0 4.25 c0 0.18 -0.12 0.3 -0.3 0.3 l-2.63 0 c-0.18 0 -0.3 -0.12 -0.3 -0.3 l0 -13.4 c0 -0.18 0.12 -0.3 0.3 -0.3 l4.93 0 z M208.46399999999997 12.61 c1.59 0 2.41 -0.34 2.41 -1.89 c0 -1.53 -0.82 -1.88 -2.41 -1.88 l-2.23 0 l0 3.77 l2.23 0 z M229.07999999999998 19.66 c0.07 0.2 -0.02 0.34 -0.24 0.34 l-2.74 0 c-0.16 0 -0.28 -0.06 -0.34 -0.24 l-0.64 -1.94 l-5.01 0 l-0.64 1.94 c-0.05 0.18 -0.18 0.24 -0.34 0.24 l-2.74 0 c-0.22 0 -0.31 -0.14 -0.24 -0.34 l4.9 -13.42 c0.06 -0.16 0.18 -0.24 0.34 -0.24 l2.4 0 c0.16 0 0.33 0.08 0.39 0.24 z M221.01999999999998 15.09 l3.2 0 l-1.6 -4.84 z M242.20599999999996 16.02 l1.62 1.75 c0.12 0.14 0.15 0.28 0.01 0.42 c-1.22 1.25 -3.01 2.07 -4.96 2.07 c-4.01 0 -7.26 -3.17 -7.26 -7.2 c0 -4.05 3.25 -7.22 7.26 -7.22 c1.95 0 3.74 0.8 4.96 2.07 c0.14 0.15 0.11 0.28 -0.01 0.42 l-1.62 1.75 c-0.11 0.14 -0.28 0.14 -0.42 0.02 c-0.77 -0.66 -1.74 -1.09 -2.94 -1.09 c-2.18 0 -3.89 1.74 -3.89 4.05 c0 2.29 1.71 4.03 3.89 4.03 c1.2 0 2.17 -0.43 2.94 -1.09 c0.14 -0.12 0.31 -0.12 0.42 0.02 z M256.30199999999996 17.16 c0.18 0 0.3 0.12 0.3 0.3 l0 2.24 c0 0.18 -0.12 0.3 -0.3 0.3 l-8.77 0 c-0.18 0 -0.3 -0.12 -0.3 -0.3 l0 -13.4 c0 -0.18 0.12 -0.3 0.3 -0.3 l8.75 0 c0.18 0 0.3 0.12 0.3 0.3 l0 2.24 c0 0.18 -0.12 0.3 -0.3 0.3 l-5.82 0 l0 2.69 l5.33 0 c0.18 0 0.3 0.12 0.3 0.3 l0 2.24 c0 0.18 -0.12 0.3 -0.3 0.3 l-5.33 0 l0 2.79 l5.84 0 z M264.59799999999996 11.53 c2.63 0.49 5.4 1.41 5.4 4.48 c0 2.99 -1.8 4.29 -5.33 4.29 c-3.29 0 -4.91 -1.12 -5.16 -3.92 c-0.02 -0.2 0.1 -0.33 0.28 -0.33 l2.41 0 c0.18 0 0.25 0.11 0.3 0.27 c0.26 0.72 0.9 1.07 2.17 1.07 c1.34 0 2.17 -0.38 2.17 -1.27 c0 -0.93 -0.3 -1.43 -2.24 -1.81 c-2.48 -0.49 -4.88 -1.52 -4.88 -4.34 c0 -2.58 1.57 -4.14 4.88 -4.14 c2.95 0 4.71 1.09 4.98 3.79 c0.02 0.2 -0.1 0.36 -0.28 0.36 l-2.23 0 c-0.18 0 -0.25 -0.14 -0.3 -0.3 c-0.19 -0.58 -0.82 -0.97 -2.12 -0.97 c-1.19 0 -1.79 0.52 -1.79 1.26 c0 0.6 -0.04 1.22 1.74 1.56 z M278.294 17.47 c0.18 0 0.3 0.12 0.3 0.3 l0 1.12 c0 2 -0.43 3.84 -0.84 4.94 c-0.06 0.16 -0.17 0.21 -0.33 0.21 l-1.54 0 c-0.2 0 -0.3 -0.12 -0.26 -0.31 c0.21 -1.05 0.27 -2.78 0.25 -3.73 l-2.77 0 c-0.18 0 -0.3 -0.12 -0.3 -0.3 l0 -1.93 c0 -0.18 0.12 -0.3 0.3 -0.3 l5.19 0 z M299.8759999999999 8.84 l-3.17 0 l0 8.32 l3.17 0 c0.18 0 0.3 0.12 0.3 0.3 l0 2.24 c0 0.18 -0.12 0.3 -0.3 0.3 l-9.57 0 c-0.18 0 -0.3 -0.12 -0.3 -0.3 l0 -2.24 c0 -0.18 0.12 -0.3 0.3 -0.3 l3.17 0 l0 -8.32 l-3.17 0 c-0.18 0 -0.3 -0.12 -0.3 -0.3 l0 -2.24 c0 -0.18 0.12 -0.3 0.3 -0.3 l9.57 0 c0.18 0 0.3 0.12 0.3 0.3 l0 2.24 c0 0.18 -0.12 0.3 -0.3 0.3 z M315.1019999999999 6 c0.18 0 0.3 0.12 0.3 0.3 l0 13.4 c0 0.18 -0.12 0.3 -0.3 0.3 l-2.96 0 c-0.16 0 -0.28 -0.06 -0.36 -0.2 l-4.77 -8.57 l0 8.47 c0 0.18 -0.12 0.3 -0.3 0.3 l-2.63 0 c-0.18 0 -0.3 -0.12 -0.3 -0.3 l0 -13.4 c0 -0.18 0.12 -0.3 0.3 -0.3 l2.95 0 c0.16 0 0.28 0.06 0.36 0.2 l4.77 8.56 l0 -8.46 c0 -0.18 0.12 -0.3 0.3 -0.3 l2.64 0 z M323.74799999999993 11.53 c2.63 0.49 5.4 1.41 5.4 4.48 c0 2.99 -1.8 4.29 -5.33 4.29 c-3.29 0 -4.91 -1.12 -5.16 -3.92 c-0.02 -0.2 0.1 -0.33 0.28 -0.33 l2.41 0 c0.18 0 0.25 0.11 0.3 0.27 c0.26 0.72 0.9 1.07 2.17 1.07 c1.34 0 2.17 -0.38 2.17 -1.27 c0 -0.93 -0.3 -1.43 -2.24 -1.81 c-2.48 -0.49 -4.88 -1.52 -4.88 -4.34 c0 -2.58 1.57 -4.14 4.88 -4.14 c2.95 0 4.71 1.09 4.98 3.79 c0.02 0.2 -0.1 0.36 -0.28 0.36 l-2.23 0 c-0.18 0 -0.25 -0.14 -0.3 -0.3 c-0.19 -0.58 -0.82 -0.97 -2.12 -0.97 c-1.19 0 -1.79 0.52 -1.79 1.26 c0 0.6 -0.04 1.22 1.74 1.56 z M337.63399999999996 6 c4.41 0 5.73 1.57 5.73 4.72 c0 3.16 -1.32 4.73 -5.73 4.73 l-2 0 l0 4.25 c0 0.18 -0.12 0.3 -0.3 0.3 l-2.63 0 c-0.18 0 -0.3 -0.12 -0.3 -0.3 l0 -13.4 c0 -0.18 0.12 -0.3 0.3 -0.3 l4.93 0 z M337.864 12.61 c1.59 0 2.41 -0.34 2.41 -1.89 c0 -1.53 -0.82 -1.88 -2.41 -1.88 l-2.23 0 l0 3.77 l2.23 0 z M356.0899999999999 8.84 l-3.17 0 l0 8.32 l3.17 0 c0.18 0 0.3 0.12 0.3 0.3 l0 2.24 c0 0.18 -0.12 0.3 -0.3 0.3 l-9.57 0 c-0.18 0 -0.3 -0.12 -0.3 -0.3 l0 -2.24 c0 -0.18 0.12 -0.3 0.3 -0.3 l3.17 0 l0 -8.32 l-3.17 0 c-0.18 0 -0.3 -0.12 -0.3 -0.3 l0 -2.24 c0 -0.18 0.12 -0.3 0.3 -0.3 l9.57 0 c0.18 0 0.3 0.12 0.3 0.3 l0 2.24 c0 0.18 -0.12 0.3 -0.3 0.3 z M368.3859999999999 15.030000000000001 l2.44 4.62 c0.11 0.21 -0.01 0.35 -0.24 0.35 l-2.58 0 c-0.17 0 -0.27 -0.07 -0.35 -0.23 l-2.19 -4.32 l-0.24 0 l-2 0 l0 4.25 c0 0.18 -0.12 0.3 -0.3 0.3 l-2.63 0 c-0.18 0 -0.3 -0.12 -0.3 -0.3 l0 -13.4 c0 -0.18 0.12 -0.3 0.3 -0.3 l4.93 0 c4.41 0 5.73 1.57 5.73 4.72 c0 2.22 -0.65 3.65 -2.57 4.31 z M363.22599999999994 8.84 l0 3.77 l2.23 0 c1.59 0 2.41 -0.34 2.41 -1.89 c0 -1.53 -0.82 -1.88 -2.41 -1.88 l-2.23 0 z M383.7319999999999 8.84 l-3.17 0 l0 8.32 l3.17 0 c0.18 0 0.3 0.12 0.3 0.3 l0 2.24 c0 0.18 -0.12 0.3 -0.3 0.3 l-9.57 0 c-0.18 0 -0.3 -0.12 -0.3 -0.3 l0 -2.24 c0 -0.18 0.12 -0.3 0.3 -0.3 l3.17 0 l0 -8.32 l-3.17 0 c-0.18 0 -0.3 -0.12 -0.3 -0.3 l0 -2.24 c0 -0.18 0.12 -0.3 0.3 -0.3 l9.57 0 c0.18 0 0.3 0.12 0.3 0.3 l0 2.24 c0 0.18 -0.12 0.3 -0.3 0.3 z M398.9579999999999 6 c0.18 0 0.3 0.12 0.3 0.3 l0 13.4 c0 0.18 -0.12 0.3 -0.3 0.3 l-2.96 0 c-0.16 0 -0.28 -0.06 -0.36 -0.2 l-4.77 -8.57 l0 8.47 c0 0.18 -0.12 0.3 -0.3 0.3 l-2.63 0 c-0.18 0 -0.3 -0.12 -0.3 -0.3 l0 -13.4 c0 -0.18 0.12 -0.3 0.3 -0.3 l2.95 0 c0.16 0 0.28 0.06 0.36 0.2 l4.77 8.56 l0 -8.46 c0 -0.18 0.12 -0.3 0.3 -0.3 l2.64 0 z M416.03399999999993 11.94 c0.18 0 0.3 0.12 0.3 0.3 l0 1.43 c0 3.58 -2.31 6.59 -6.29 6.59 c-4.01 0 -7.33 -3.22 -7.33 -7.23 c0 -4.02 3.25 -7.19 7.26 -7.19 c1.95 0 3.74 0.8 4.96 2.07 c0.14 0.15 0.11 0.28 -0.01 0.42 l-1.62 1.75 c-0.11 0.14 -0.28 0.14 -0.42 0.02 c-0.77 -0.66 -1.74 -1.09 -2.94 -1.09 c-2.18 0 -3.89 1.74 -3.89 4.02 s1.61 4.06 3.96 4.06 c2.05 0 3.07 -1.19 3.13 -2.47 l-3.04 0 c-0.18 0 -0.3 -0.12 -0.3 -0.3 l0 -2.08 c0 -0.18 0.12 -0.3 0.3 -0.3 l5.93 0 z M438.2359999999999 16.02 l1.62 1.75 c0.12 0.14 0.15 0.28 0.01 0.42 c-1.22 1.25 -3.01 2.07 -4.96 2.07 c-4.01 0 -7.26 -3.17 -7.26 -7.2 c0 -4.05 3.25 -7.22 7.26 -7.22 c1.95 0 3.74 0.8 4.96 2.07 c0.14 0.15 0.11 0.28 -0.01 0.42 l-1.62 1.75 c-0.11 0.14 -0.28 0.14 -0.42 0.02 c-0.77 -0.66 -1.74 -1.09 -2.94 -1.09 c-2.18 0 -3.89 1.74 -3.89 4.05 c0 2.29 1.71 4.03 3.89 4.03 c1.2 0 2.17 -0.43 2.94 -1.09 c0.14 -0.12 0.31 -0.12 0.42 0.02 z M451.6519999999999 15.030000000000001 l2.44 4.62 c0.11 0.21 -0.01 0.35 -0.24 0.35 l-2.58 0 c-0.17 0 -0.27 -0.07 -0.35 -0.23 l-2.19 -4.32 l-0.24 0 l-2 0 l0 4.25 c0 0.18 -0.12 0.3 -0.3 0.3 l-2.63 0 c-0.18 0 -0.3 -0.12 -0.3 -0.3 l0 -13.4 c0 -0.18 0.12 -0.3 0.3 -0.3 l4.93 0 c4.41 0 5.73 1.57 5.73 4.72 c0 2.22 -0.65 3.65 -2.57 4.31 z M446.4919999999999 8.84 l0 3.77 l2.23 0 c1.59 0 2.41 -0.34 2.41 -1.89 c0 -1.53 -0.82 -1.88 -2.41 -1.88 l-2.23 0 z M466.44799999999987 17.16 c0.18 0 0.3 0.12 0.3 0.3 l0 2.24 c0 0.18 -0.12 0.3 -0.3 0.3 l-8.77 0 c-0.18 0 -0.3 -0.12 -0.3 -0.3 l0 -13.4 c0 -0.18 0.12 -0.3 0.3 -0.3 l8.75 0 c0.18 0 0.3 0.12 0.3 0.3 l0 2.24 c0 0.18 -0.12 0.3 -0.3 0.3 l-5.82 0 l0 2.69 l5.33 0 c0.18 0 0.3 0.12 0.3 0.3 l0 2.24 c0 0.18 -0.12 0.3 -0.3 0.3 l-5.33 0 l0 2.79 l5.84 0 z M482.26399999999984 19.66 c0.07 0.2 -0.02 0.34 -0.24 0.34 l-2.74 0 c-0.16 0 -0.28 -0.06 -0.34 -0.24 l-0.64 -1.94 l-5.01 0 l-0.64 1.94 c-0.05 0.18 -0.18 0.24 -0.34 0.24 l-2.74 0 c-0.22 0 -0.31 -0.14 -0.24 -0.34 l4.9 -13.42 c0.06 -0.16 0.18 -0.24 0.34 -0.24 l2.4 0 c0.16 0 0.33 0.08 0.39 0.24 z M474.20399999999984 15.09 l3.2 0 l-1.6 -4.84 z M495.2199999999999 6 c0.18 0 0.3 0.12 0.3 0.3 l0 2.24 c0 0.18 -0.12 0.3 -0.3 0.3 l-3.62 0 l0 10.86 c0 0.18 -0.12 0.3 -0.3 0.3 l-2.63 0 c-0.18 0 -0.3 -0.12 -0.3 -0.3 l0 -10.86 l-3.62 0 c-0.18 0 -0.3 -0.12 -0.3 -0.3 l0 -2.24 c0 -0.18 0.12 -0.3 0.3 -0.3 l10.47 0 z M508.24599999999987 8.84 l-3.17 0 l0 8.32 l3.17 0 c0.18 0 0.3 0.12 0.3 0.3 l0 2.24 c0 0.18 -0.12 0.3 -0.3 0.3 l-9.57 0 c-0.18 0 -0.3 -0.12 -0.3 -0.3 l0 -2.24 c0 -0.18 0.12 -0.3 0.3 -0.3 l3.17 0 l0 -8.32 l-3.17 0 c-0.18 0 -0.3 -0.12 -0.3 -0.3 l0 -2.24 c0 -0.18 0.12 -0.3 0.3 -0.3 l9.57 0 c0.18 0 0.3 0.12 0.3 0.3 l0 2.24 c0 0.18 -0.12 0.3 -0.3 0.3 z M520.8419999999999 6.24 c0.06 -0.18 0.18 -0.24 0.34 -0.24 l2.74 0 c0.22 0 0.31 0.14 0.24 0.34 l-4.9 13.42 c-0.06 0.16 -0.23 0.24 -0.39 0.24 l-2.4 0 c-0.16 0 -0.28 -0.08 -0.34 -0.24 l-4.9 -13.42 c-0.07 -0.2 0.02 -0.34 0.24 -0.34 l2.74 0 c0.16 0 0.29 0.06 0.34 0.24 l3.15 9.51 z M536.718 8.84 l-3.17 0 l0 8.32 l3.17 0 c0.18 0 0.3 0.12 0.3 0.3 l0 2.24 c0 0.18 -0.12 0.3 -0.3 0.3 l-9.57 0 c-0.18 0 -0.3 -0.12 -0.3 -0.3 l0 -2.24 c0 -0.18 0.12 -0.3 0.3 -0.3 l3.17 0 l0 -8.32 l-3.17 0 c-0.18 0 -0.3 -0.12 -0.3 -0.3 l0 -2.24 c0 -0.18 0.12 -0.3 0.3 -0.3 l9.57 0 c0.18 0 0.3 0.12 0.3 0.3 l0 2.24 c0 0.18 -0.12 0.3 -0.3 0.3 z M550.6439999999999 6 c0.18 0 0.3 0.12 0.3 0.3 l0 2.24 c0 0.18 -0.12 0.3 -0.3 0.3 l-3.62 0 l0 10.86 c0 0.18 -0.12 0.3 -0.3 0.3 l-2.63 0 c-0.18 0 -0.3 -0.12 -0.3 -0.3 l0 -10.86 l-3.62 0 c-0.18 0 -0.3 -0.12 -0.3 -0.3 l0 -2.24 c0 -0.18 0.12 -0.3 0.3 -0.3 l10.47 0 z M566.1299999999999 6 c0.24 0 0.33 0.13 0.2 0.36 l-5.01 8.22 l0 5.12 c0 0.18 -0.12 0.3 -0.3 0.3 l-2.63 0 c-0.18 0 -0.3 -0.12 -0.3 -0.3 l0 -5.16 l-5.02 -8.18 c-0.14 -0.23 -0.04 -0.36 0.2 -0.36 l2.97 0 c0.16 0 0.27 0.06 0.36 0.2 l3.1 5.16 l3.11 -5.16 c0.09 -0.14 0.2 -0.2 0.36 -0.2 l2.96 0 z"></path></g>
			</g>
		</svg>
	